<?xml version="1.0" encoding="UTF-8" standalone="no"?>
<!-- Created with Inkscape (http://www.inkscape.org/) -->

<svg
   width="50.39756mm"
   height="59.541645mm"
   viewBox="0 0 50.39756 59.541645"
   version="1.1"
   id="svg5"
   inkscape:version="1.1 (c4e8f9ed74, 2021-05-24)"
   sodipodi:docname="logo.svg"
   xmlns:inkscape="http://www.inkscape.org/namespaces/inkscape"
   xmlns:sodipodi="http://sodipodi.sourceforge.net/DTD/sodipodi-0.dtd"
   xmlns="http://www.w3.org/2000/svg"
   xmlns:svg="http://www.w3.org/2000/svg">
  <sodipodi:namedview
     id="namedview7"
     pagecolor="#ffffff"
     bordercolor="#666666"
     borderopacity="1.0"
     inkscape:pageshadow="2"
     inkscape:pageopacity="0.0"
     inkscape:pagecheckerboard="0"
     inkscape:document-units="mm"
     showgrid="false"
     inkscape:zoom="0.67081229"
     inkscape:cx="-179.63296"
     inkscape:cy="491.9409"
     inkscape:window-width="1918"
     inkscape:window-height="1053"
     inkscape:window-x="0"
     inkscape:window-y="0"
     inkscape:window-maximized="1"
     inkscape:current-layer="layer1"
     fit-margin-top="0"
     fit-margin-left="0"
     fit-margin-right="0"
     fit-margin-bottom="0" />
  <defs
     id="defs2" />
  <g
     inkscape:label="Layer 1"
     inkscape:groupmode="layer"
     id="layer1"
     transform="translate(-28.112169,-17.960024)">
    <g
       aria-label="    (
  ; .\
 ( :' )
o /~~\ o
 o o  o"
       id="text1045"
       style="font-weight:bold;font-size:10.5833px;line-height:1.25;font-family:'Nimbus Mono PS';-inkscape-font-specification:'Nimbus Mono PS, Bold';letter-spacing:0px;word-spacing:0px;stroke-width:0.264583">
      <path
         d="m 58.136926,17.960024 c -0.253999,0 -0.380999,0.09525 -0.645581,0.465665 -0.772581,1.111247 -1.227663,2.412993 -1.227663,3.503072 0,1.12183 0.380999,2.285993 1.142996,3.439573 0.317499,0.486832 0.455082,0.603248 0.740831,0.603248 0.317499,0 0.571498,-0.232833 0.571498,-0.539748 0,-0.137583 -0.02117,-0.1905 -0.126999,-0.359833 -0.740831,-1.121829 -1.068914,-2.095493 -1.068914,-3.11149 0,-1.015996 0.328083,-1.95791 1.068914,-3.100906 0.105833,-0.169333 0.126999,-0.22225 0.126999,-0.359833 0,-0.306915 -0.243416,-0.539748 -0.582081,-0.539748 z"
         style="fill:#ff6600"
         id="path25" />
      <path
         d="m 43.098089,36.216216 -0.730247,2.497659 c -0.03175,0.105833 -0.04233,0.148166 -0.04233,0.201082 0,0.1905 0.169333,0.338666 0.370416,0.338666 0.148166,0 0.275166,-0.09525 0.370415,-0.264582 l 1.534579,-2.772825 z m 0.645582,-3.04799 c -0.507999,0 -0.846664,0.275166 -0.846664,0.709081 0,0.433915 0.338665,0.709081 0.846664,0.709081 0.486831,0 0.825497,-0.285749 0.825497,-0.698498 0,-0.433915 -0.328082,-0.719664 -0.825497,-0.719664 z"
         style="fill:#ff0000"
         id="path27" />
      <path
         d="m 56.782264,37.803711 c 0.412748,0 0.74083,-0.306916 0.74083,-0.709081 0,-0.391582 -0.328082,-0.709081 -0.74083,-0.709081 h -0.1905 c -0.402165,0 -0.740831,0.317499 -0.740831,0.709081 0,0.391582 0.328082,0.709081 0.740831,0.709081 z"
         style="fill:#d4aa00"
         id="path29" />
      <path
         d="m 61.851648,31.019816 c -0.179916,-0.359832 -0.317499,-0.465665 -0.592664,-0.465665 -0.296333,0 -0.560915,0.243416 -0.560915,0.518581 0,0.116417 0.02117,0.201083 0.126999,0.402166 l 3.386656,6.857978 c 0.179916,0.359832 0.317499,0.465665 0.592665,0.465665 0.296332,0 0.571498,-0.253999 0.571498,-0.518582 0,-0.116416 -0.03175,-0.222249 -0.126999,-0.412748 z"
         style="fill:#ff0000"
         id="path31" />
      <path
         d="m 39.087035,44.418273 c -0.253999,0 -0.380999,0.09525 -0.645581,0.465665 -0.772581,1.111247 -1.227663,2.412993 -1.227663,3.503073 0,1.121829 0.380999,2.285992 1.142996,3.439572 0.317499,0.486832 0.455082,0.603248 0.740831,0.603248 0.317499,0 0.571498,-0.232833 0.571498,-0.539748 0,-0.137583 -0.02117,-0.1905 -0.126999,-0.359832 -0.740831,-1.12183 -1.068914,-2.095494 -1.068914,-3.111491 0,-1.015996 0.328083,-1.95791 1.068914,-3.100906 0.105833,-0.169333 0.126999,-0.22225 0.126999,-0.359832 0,-0.306916 -0.243416,-0.539749 -0.582081,-0.539749 z"
         style="fill:#d40000"
         id="path33" />
      <path
         d="m 50.432299,51.032835 c 0.412749,0 0.740831,-0.306915 0.740831,-0.709081 0,-0.391582 -0.328082,-0.709081 -0.740831,-0.709081 H 50.2418 c -0.402165,0 -0.740831,0.317499 -0.740831,0.709081 0,0.391583 0.328082,0.709081 0.740831,0.709081 z m 0,-3.217323 c 0.412749,0 0.740831,-0.317499 0.740831,-0.709081 0,-0.402165 -0.328082,-0.709081 -0.740831,-0.709081 H 50.2418 c -0.412749,0 -0.740831,0.317499 -0.740831,0.709081 0,0.391582 0.338666,0.709081 0.740831,0.709081 z"
         style="fill:#d4aa00"
         id="path35" />
      <path
         d="m 55.956766,44.714606 0.370416,2.614075 c 0.03175,0.285749 0.137583,0.402165 0.370415,0.402165 0.232833,0 0.338666,-0.116416 0.370416,-0.402165 l 0.338665,-2.614075 z"
         style="fill:#d4aa00"
         id="path37" />
      <path
         d="m 67.989945,44.418273 c -0.328083,0 -0.582082,0.232833 -0.582082,0.539749 0,0.137582 0.02117,0.190499 0.127,0.359832 0.740831,1.121829 1.068913,2.095493 1.068913,3.11149 0,1.015997 -0.328082,1.979077 -1.068913,3.100907 -0.105833,0.169332 -0.127,0.222249 -0.127,0.359832 0,0.306915 0.253999,0.539748 0.582082,0.539748 0.253999,0 0.380998,-0.09525 0.645581,-0.465665 0.772581,-1.111247 1.227663,-2.412992 1.227663,-3.503072 0,-1.12183 -0.380999,-2.285993 -1.142997,-3.439573 -0.306915,-0.486831 -0.455082,-0.603248 -0.730247,-0.603248 z"
         style="fill:#d40000"
         id="path39" />
      <path
         d="m 31.318909,59.488892 c -1.587495,0 -2.804574,1.037163 -2.804574,2.391826 0,1.344079 1.217079,2.391825 2.772824,2.391825 1.555745,0 2.772825,-1.047746 2.772825,-2.391825 0,-1.333496 -1.21708,-2.391826 -2.741075,-2.391826 z m -0.05292,1.09008 c 0.941913,0 1.650994,0.560915 1.650994,1.301746 0,0.730247 -0.709081,1.301745 -1.629828,1.301745 -0.920747,0 -1.629828,-0.571498 -1.629828,-1.301745 0,-0.730248 0.709081,-1.301746 1.608662,-1.301746 z"
         style="fill:#784421"
         id="path41" />
      <path
         d="m 46.198996,57.933147 c 0.105833,-0.201083 0.127,-0.285749 0.127,-0.402166 0,-0.275165 -0.264583,-0.518581 -0.560915,-0.518581 -0.275166,0 -0.412749,0.105833 -0.592665,0.465665 l -3.397239,6.847395 c -0.09525,0.190499 -0.127,0.296332 -0.127,0.412749 0,0.275165 0.275166,0.518581 0.571498,0.518581 0.275166,0 0.412749,-0.105833 0.592665,-0.465665 z"
         id="path43" />
      <path
         d="m 52.32671,60.145056 c -0.232833,0 -0.370415,0.08467 -0.603248,0.380999 -0.232833,0.306916 -0.359832,0.423332 -0.444499,0.423332 -0.0635,0 -0.190499,-0.07408 -0.349249,-0.211666 -0.751414,-0.656164 -1.037163,-0.804331 -1.513411,-0.804331 -0.465666,0 -0.825498,0.1905 -1.24883,0.656165 -0.317499,0.349249 -0.433915,0.550332 -0.433915,0.761998 0,0.317499 0.285749,0.592664 0.624415,0.592664 0.222249,0 0.328082,-0.0635 0.613831,-0.412748 0.264583,-0.306916 0.359832,-0.391582 0.433915,-0.391582 0.05292,0 0.201083,0.09525 0.391582,0.253999 0.645582,0.560915 1.05833,0.772581 1.502829,0.772581 0.444499,0 0.783164,-0.1905 1.18533,-0.645582 0.370415,-0.423332 0.455081,-0.560914 0.455081,-0.783164 0,-0.328082 -0.275165,-0.592665 -0.613831,-0.592665 z"
         style="fill:#aa0000"
         id="path45" />
      <path
         d="m 58.676674,60.145056 c -0.232832,0 -0.370415,0.08467 -0.603248,0.380999 -0.232833,0.306916 -0.359832,0.423332 -0.444499,0.423332 -0.0635,0 -0.190499,-0.07408 -0.349248,-0.211666 -0.751415,-0.656164 -1.037164,-0.804331 -1.513412,-0.804331 -0.465665,0 -0.825498,0.1905 -1.24883,0.656165 -0.317499,0.349249 -0.433915,0.550332 -0.433915,0.761998 0,0.317499 0.285749,0.592664 0.624415,0.592664 0.222249,0 0.328082,-0.0635 0.613831,-0.412748 0.264583,-0.306916 0.359832,-0.391582 0.433915,-0.391582 0.05292,0 0.201083,0.09525 0.391583,0.253999 0.645581,0.560915 1.058329,0.772581 1.502828,0.772581 0.444499,0 0.783164,-0.1905 1.18533,-0.645582 0.370415,-0.423332 0.455082,-0.560914 0.455082,-0.783164 0,-0.328082 -0.275166,-0.592665 -0.613832,-0.592665 z"
         style="fill:#aa0000"
         id="path47" />
      <path
         d="M 61.851648,57.478065 C 61.671732,57.118233 61.534149,57.0124 61.258984,57.0124 c -0.296333,0 -0.560915,0.243416 -0.560915,0.518581 0,0.116417 0.02117,0.201083 0.126999,0.402166 l 3.386656,6.857978 c 0.179916,0.359832 0.317499,0.465665 0.592665,0.465665 0.296332,0 0.571498,-0.253999 0.571498,-0.518581 0,-0.116417 -0.03175,-0.22225 -0.126999,-0.412749 z"
         id="path49" />
      <path
         d="m 75.768654,59.488892 c -1.587495,0 -2.804574,1.037163 -2.804574,2.391826 0,1.344079 1.217079,2.391825 2.772824,2.391825 1.555745,0 2.772825,-1.047746 2.772825,-2.391825 0,-1.333496 -1.21708,-2.391826 -2.741075,-2.391826 z m -0.05292,1.09008 c 0.941913,0 1.650994,0.560915 1.650994,1.301746 0,0.730247 -0.709081,1.301745 -1.629828,1.301745 -0.920747,0 -1.629828,-0.571498 -1.629828,-1.301745 0,-0.730248 0.709081,-1.301746 1.608662,-1.301746 z"
         style="fill:#784421"
         id="path51" />
      <path
         d="m 37.668873,72.718016 c -1.587495,0 -2.804575,1.037164 -2.804575,2.391826 0,1.344079 1.21708,2.391826 2.772825,2.391826 1.555745,0 2.772824,-1.047747 2.772824,-2.391826 0,-1.333496 -1.217079,-2.391826 -2.741074,-2.391826 z m -0.05292,1.09008 c 0.941914,0 1.650995,0.560915 1.650995,1.301746 0,0.730248 -0.709081,1.301746 -1.629828,1.301746 -0.920747,0 -1.629828,-0.571498 -1.629828,-1.301746 0,-0.730248 0.709081,-1.301746 1.608661,-1.301746 z"
         style="fill:#784421"
         id="path53" />
      <path
         d="m 50.3688,72.718016 c -1.587495,0 -2.804575,1.037164 -2.804575,2.391826 0,1.344079 1.21708,2.391826 2.772825,2.391826 1.555745,0 2.772824,-1.047747 2.772824,-2.391826 0,-1.333496 -1.217079,-2.391826 -2.741074,-2.391826 z m -0.05292,1.09008 c 0.941914,0 1.650995,0.560915 1.650995,1.301746 0,0.730248 -0.709081,1.301746 -1.629828,1.301746 -0.920747,0 -1.629828,-0.571498 -1.629828,-1.301746 0,-0.730248 0.709081,-1.301746 1.608661,-1.301746 z"
         style="fill:#784421"
         id="path55" />
      <path
         d="m 69.41869,72.718016 c -1.587495,0 -2.804574,1.037164 -2.804574,2.391826 0,1.344079 1.217079,2.391826 2.772824,2.391826 1.555745,0 2.772825,-1.047747 2.772825,-2.391826 0,-1.333496 -1.21708,-2.391826 -2.741075,-2.391826 z m -0.05292,1.09008 c 0.941913,0 1.650994,0.560915 1.650994,1.301746 0,0.730248 -0.709081,1.301746 -1.629828,1.301746 -0.920747,0 -1.629828,-0.571498 -1.629828,-1.301746 0,-0.730248 0.709081,-1.301746 1.608662,-1.301746 z"
         style="fill:#784421"
         id="path57" />
    </g>
    <text
       xml:space="preserve"
       style="font-style:normal;font-weight:normal;font-size:10.5833px;line-height:1.25;font-family:sans-serif;letter-spacing:0px;word-spacing:0px;fill:#000000;fill-opacity:1;stroke:none;stroke-width:0.264583"
       x="52.035816"
       y="51.523571"
       id="text57727"><tspan
         sodipodi:role="line"
         id="tspan57725"
         style="stroke-width:0.264583"
         x="52.035816"
         y="51.523571" /></text>
  </g>
</svg>
